# xmcd CD database file
#
# Track frame offsets:
#	150
#	10970
#	29730
#	42915
#	54030
#	64877
#	77062
#	88140
#	99365
#	109510
#	124235
#	139457
#	149890
#	160995
#	170995
#	182422
#	193845
#	202872
#	215720
#	226050
#	240075
#
# Disc length: 3408 seconds
#
# Revision: 2
# Processed by: cddbd v1.5.2PL0 Copyright (c) Steve Scherf et al.
# Submitted via: CDex 1.51
#
DISCID=2c0d4e15
DTITLE=Johnny Copeland - Soul Power
DYEAR=1900
DGENRE=Blues
TTITLE0=Soul Power
TTITLE1=I'll Be Around
TTITLE2=My Own Tears
TTITLE3=There's A Blessing
TTITLE4=House Of So Many Tears
TTITLE5=Something You Got
TTITLE6=Please Let Me Know (Unissued Version)
TTITLE7=Please Let Me Know (Issued Version)
TTITLE8=Year 'Round Baby
TTITLE9=I Need You Now
TTITLE10=Funny Feeling
TTITLE11=Something Up Your Sleeve
TTITLE12=Coming To See About You
TTITLE13=It Must Be Love
TTITLE14=Your Game Is Working
TTITLE15=May The Best Many Win
TTITLE16=Hear What I Said
TTITLE17=I've Gotta Go Home
TTITLE18=Proving Time
TTITLE19=I Been Tricked
TTITLE20=Love Prayer
EXTD=
EXTT0=
EXTT1=
EXTT2=
EXTT3=
EXTT4=
EXTT5=
EXTT6=
EXTT7=
EXTT8=
EXTT9=
EXTT10=
EXTT11=
EXTT12=
EXTT13=
EXTT14=
EXTT15=
EXTT16=
EXTT17=
EXTT18=
EXTT19=
EXTT20=
PLAYORDER=
